<?xml version="1.0" standalone="no"?>
<!DOCTYPE svg PUBLIC "-//W3C//DTD SVG 20010904//EN" "http://www.w3.org/TR/2001/REC-SVG-20010904/DTD/svg10.dtd">
<svg version="1.0" xmlns="http://www.w3.org/2000/svg"
 width="600.000000pt" height="294.000000pt" viewBox="0 0 600.000000 294.000000" fill="#fff" >
<g transform="translate(0.000000,294.000000) scale(0.100000,-0.100000)"  stroke="none">
<path d="M1380 2927 c0 -15 -41 -37 -67 -37 -25 0 -162 -69 -215 -109 -72 -53
-138 -112 -138 -123 0 -6 -17 -31 -39 -57 -65 -78 -131 -237 -144 -344 -3 -20
-9 -43 -15 -50 -6 -6 -12 -23 -14 -37 l-3 -25 -372 -3 -373 -2 0 -1070 0
-1070 3000 0 3000 0 0 1070 0 1070 -1807 2 -1807 3 -13 75 c-18 113 -25 144
-33 155 -4 6 -13 27 -19 47 -7 21 -22 55 -34 75 -12 21 -31 54 -42 73 -27 48
-183 208 -221 228 -104 55 -183 91 -213 97 -21 5 -35 14 -38 26 -5 18 -17 19
-199 19 -155 0 -194 -3 -194 -13z m338 -186 c54 -12 176 -69 225 -105 53 -39
127 -109 127 -120 0 -6 14 -28 31 -49 44 -53 44 -111 1 -187 -17 -30 -40 -72
-52 -92 -11 -21 -25 -38 -32 -38 -6 0 -32 20 -59 45 -58 54 -159 105 -259 130
-84 21 -274 25 -293 6 -6 -6 -22 -11 -35 -11 -13 0 -36 -6 -50 -14 -15 -8 -47
-24 -72 -35 -25 -11 -58 -32 -74 -46 -16 -13 -37 -27 -47 -30 -11 -4 -19 -10
-19 -15 0 -13 -30 -40 -44 -40 -12 0 -87 108 -100 144 -8 22 27 117 56 155 10
13 18 29 18 35 0 17 171 183 201 196 13 5 31 14 39 19 34 21 92 42 141 51 29
6 55 13 58 16 9 9 181 -2 239 -15z m466 -507 c13 -34 6 -238 -9 -268 -8 -15
-15 -35 -15 -43 0 -8 -16 -48 -36 -90 -49 -101 -153 -208 -249 -256 -149 -75
-137 -72 -306 -72 -104 0 -161 4 -170 12 -8 6 -31 14 -51 18 -21 4 -42 13 -49
21 -6 8 -18 14 -26 14 -16 0 -51 26 -135 100 -52 46 -89 96 -121 165 -10 22
-23 48 -28 58 -12 22 -40 131 -46 180 -6 43 3 87 18 87 13 0 58 -51 59 -66 0
-13 75 -84 89 -84 4 0 24 -13 42 -30 19 -16 41 -30 50 -30 9 0 22 -7 29 -15 7
-8 18 -15 25 -15 7 0 26 -7 41 -15 16 -8 38 -15 50 -15 11 0 26 -6 32 -12 9
-9 54 -13 150 -12 152 0 179 6 317 71 22 10 60 32 85 48 50 32 150 124 150
138 0 5 13 26 29 46 15 20 31 46 35 59 8 25 31 29 40 6z m-1420 -260 c9 -3 16
-12 16 -19 0 -7 7 -26 15 -41 8 -16 15 -37 15 -47 0 -9 4 -25 9 -35 6 -9 20
-39 33 -67 13 -27 29 -56 36 -63 6 -7 12 -19 12 -25 0 -19 134 -160 182 -193
24 -16 45 -32 48 -36 9 -12 143 -78 158 -78 7 0 20 -7 28 -15 9 -8 31 -15 49
-15 19 0 37 -4 40 -10 11 -17 280 -12 349 6 91 24 165 57 254 112 59 36 222
195 222 217 0 7 6 20 14 28 21 20 73 122 81 157 4 16 11 30 16 30 5 0 9 17 9
38 0 21 5 43 12 50 9 9 409 12 1739 12 950 0 1730 -4 1733 -8 10 -16 11 -1815
1 -1819 -5 -1 -1289 -4 -2852 -5 -2277 -3 -2844 0 -2848 10 -2 7 0 24 5 38 13
33 13 1723 0 1744 -23 37 2 40 310 40 164 0 305 -3 314 -6z"/>
<path d="M590 1020 c-8 -5 -35 -18 -60 -29 -59 -25 -120 -99 -120 -145 0 -9
-4 -16 -10 -16 -16 0 -12 -132 5 -154 8 -11 15 -26 15 -33 0 -19 58 -81 105
-112 36 -23 49 -26 136 -25 77 0 104 5 142 23 25 12 47 29 49 38 2 8 2 58 0
109 l-3 94 -50 0 -49 0 0 -85 c0 -73 -3 -86 -19 -95 -71 -38 -210 34 -211 109
0 14 -6 34 -13 43 -14 18 -11 88 4 88 5 0 9 9 9 20 0 25 47 69 83 77 15 3 30
10 33 14 9 14 89 10 129 -7 49 -20 65 -13 65 31 0 31 -3 36 -30 42 -16 3 -30
9 -30 14 0 12 -161 10 -180 -1z"/>
<path d="M3133 1018 c-6 -7 -18 -31 -27 -53 -10 -22 -24 -53 -32 -70 -8 -16
-17 -45 -20 -62 -4 -18 -10 -33 -14 -33 -4 0 -11 -17 -15 -37 -4 -20 -13 -46
-21 -57 -8 -11 -14 -28 -14 -38 0 -10 -4 -18 -9 -18 -5 0 -12 -16 -16 -36 -3
-21 -14 -48 -22 -61 -22 -33 -7 -45 52 -41 47 3 48 4 67 53 11 27 25 53 31 57
7 4 45 8 85 8 l72 0 28 -60 27 -60 63 0 c72 0 76 8 37 70 -14 22 -25 46 -25
55 0 8 -9 32 -20 52 -11 21 -20 43 -20 50 0 8 -4 21 -9 31 -20 36 -41 86 -41
96 -1 6 -9 29 -20 51 -11 22 -19 46 -20 53 0 6 -4 12 -9 12 -5 0 -12 11 -15
25 -5 21 -12 25 -45 25 -21 0 -43 -6 -48 -12z m71 -230 c14 -23 -3 -52 -32
-56 -27 -4 -43 25 -31 56 10 27 46 27 63 0z"/>
<path d="M3630 1015 c-14 -8 -32 -14 -41 -15 -29 0 -113 -85 -142 -142 -37
-72 -37 -147 -2 -194 14 -18 25 -37 25 -42 0 -17 82 -92 100 -92 10 0 20 -6
23 -12 5 -18 229 -17 235 0 2 7 12 12 22 12 10 0 28 8 40 18 23 19 25 43 20
230 0 8 -20 12 -65 12 l-65 0 0 -81 c0 -44 -5 -89 -10 -100 -17 -30 -63 -24
-121 16 -59 40 -89 91 -89 151 0 37 7 50 48 95 l48 52 80 5 c65 3 82 1 93 -12
7 -9 22 -16 32 -16 16 0 19 8 19 49 0 46 -3 51 -32 65 -41 21 -183 21 -218 1z"/>
<path d="M3989 1018 c0 -17 0 -456 0 -485 1 -21 6 -23 56 -23 l54 0 3 87 c3
77 5 88 22 91 20 4 66 -38 66 -61 0 -8 7 -20 15 -27 8 -6 17 -22 21 -33 14
-46 34 -57 101 -57 34 0 63 4 63 10 0 5 -13 29 -29 52 -105 155 -118 185 -83
194 22 6 62 64 62 91 0 49 -15 87 -48 119 -19 19 -43 34 -53 34 -10 0 -21 5
-24 10 -10 15 -225 13 -226 -2z m219 -124 c28 -32 28 -36 -4 -74 -22 -26 -33
-31 -63 -28 l-36 3 -3 62 c-3 57 -1 62 20 66 35 6 61 -2 86 -29z"/>
<path d="M4440 770 l0 -260 65 0 65 0 0 260 0 260 -65 0 -65 0 0 -260z"/>
<path d="M4820 1021 c0 -5 -15 -13 -32 -17 -39 -8 -148 -115 -148 -144 0 -10
-4 -22 -10 -25 -5 -3 -10 -40 -10 -81 0 -43 4 -74 10 -74 6 0 10 -9 10 -19 0
-11 6 -26 13 -33 7 -7 20 -24 28 -38 9 -14 41 -39 70 -55 49 -27 63 -30 139
-29 75 1 91 4 129 28 39 25 43 30 37 58 -3 17 -6 34 -6 39 0 14 -48 11 -52 -3
-3 -9 -28 -13 -79 -13 -88 0 -119 17 -150 84 -36 76 -16 156 49 205 35 27 143
34 176 12 44 -29 56 -22 56 34 0 45 -3 50 -25 56 -14 3 -25 10 -25 15 0 5 -40
9 -90 9 -49 0 -90 -4 -90 -9z"/>
<path d="M5297 1012 c-10 -10 -17 -24 -17 -32 0 -11 -24 -69 -51 -122 -5 -10
-9 -23 -9 -29 0 -11 -18 -55 -46 -114 -8 -16 -17 -45 -20 -62 -4 -18 -10 -33
-15 -33 -5 0 -9 -10 -9 -23 0 -12 -7 -33 -16 -45 -24 -35 -14 -47 42 -43 56 3
69 11 79 49 13 53 42 72 110 72 53 0 64 -3 83 -25 12 -14 22 -31 22 -38 0 -7
7 -23 16 -35 12 -18 25 -22 70 -22 40 0 56 4 61 15 3 9 -10 48 -30 88 -51 105
-67 143 -67 159 0 7 -7 22 -15 32 -8 11 -15 28 -15 38 0 10 -4 18 -10 18 -5 0
-10 8 -10 18 0 10 -6 26 -14 37 -7 11 -17 35 -21 54 -4 19 -13 41 -21 48 -19
19 -78 16 -97 -5z m76 -222 c10 -22 16 -44 12 -50 -8 -13 -72 -13 -80 0 -8 13
26 90 39 90 6 0 19 -18 29 -40z"/>
<path d="M2145 890 c-11 -5 -33 -9 -48 -9 -56 -2 -57 -6 -57 -290 l0 -261 25
-6 c14 -3 36 -3 50 0 24 6 25 9 25 86 0 43 4 82 10 85 5 3 33 8 62 11 28 2 54
7 57 11 3 5 19 15 35 23 44 22 76 91 76 162 0 102 -39 147 -161 186 -41 14
-47 14 -74 2z m110 -116 c20 -22 25 -37 25 -81 0 -47 -4 -59 -29 -84 -31 -31
-77 -39 -99 -17 -17 17 -16 190 1 207 19 19 73 6 102 -25z"/>
<path d="M1088 883 c-10 -2 -18 -9 -18 -14 0 -5 -13 -9 -30 -9 -16 0 -30 5
-30 10 0 6 -18 10 -40 10 l-40 0 0 -185 0 -185 50 0 c33 0 50 4 51 13 0 6 0
62 -1 122 -1 132 5 146 76 154 45 6 49 8 55 39 9 44 -17 60 -73 45z"/>
<path d="M1330 883 c-13 -3 -43 -18 -66 -35 -70 -50 -95 -168 -53 -248 33 -63
89 -94 171 -94 l66 -1 50 50 c40 41 50 59 56 97 4 26 4 64 0 85 -6 40 -48 113
-63 113 -5 0 -16 6 -23 14 -16 15 -99 27 -138 19z m77 -79 c16 -5 24 -16 29
-43 4 -20 11 -42 17 -49 7 -9 7 -20 -1 -35 -6 -12 -13 -34 -16 -48 -3 -15 -17
-34 -30 -43 -38 -24 -80 -5 -105 48 -26 53 -26 72 -1 121 28 54 49 64 107 49z"/>
<path d="M1903 882 c-32 -2 -43 -7 -43 -20 -1 -9 -2 -70 -3 -135 -2 -104 -4
-120 -21 -133 -25 -18 -67 -18 -92 0 -17 13 -19 29 -22 151 l-4 136 -50 -3
-50 -3 0 -137 c1 -76 6 -144 11 -150 54 -69 67 -78 117 -84 37 -4 54 -2 65 8
23 23 45 27 65 14 24 -17 73 -26 80 -15 8 14 6 361 -3 368 -4 3 -27 5 -50 3z"/>
<path d="M2555 883 c-35 -5 -105 -69 -105 -95 0 -10 -4 -18 -10 -18 -6 0 -10
-32 -10 -75 0 -43 4 -75 10 -75 6 0 10 -8 10 -18 0 -30 70 -89 115 -96 58 -8
137 3 163 24 17 14 21 25 16 49 -7 34 -33 42 -54 16 -32 -39 -150 -3 -150 46
0 18 8 19 115 19 l115 0 0 44 c0 24 -8 59 -17 77 -20 37 -82 99 -99 99 -6 0
-24 2 -40 4 -16 2 -42 2 -59 -1z m89 -92 c39 -44 -1 -71 -81 -56 -23 4 -33 11
-33 25 0 47 80 69 114 31z"/>
</g>
</svg>
