<?xml version="1.0" standalone="no"?>
<!DOCTYPE svg PUBLIC "-//W3C//DTD SVG 20010904//EN" "http://www.w3.org/TR/2001/REC-SVG-20010904/DTD/svg10.dtd">
<svg version="1.0" xmlns="http://www.w3.org/2000/svg"
 width="200.000000pt" height="98.000000pt" viewBox="0 0 200.000000 98.000000"
 preserveAspectRatio="xMidYMid meet">
<g transform="translate(0.000000,98.000000) scale(0.100000,-0.100000)" fill="#FFF" stroke="none">
<path d="M432 965 c-84 -37 -141 -102 -167 -191 l-16 -54 -124 0 -125 0 0 -360 0 -360 1000 0 1000 0 0 360 0 360 -598 0 -599 0 -16 58 c-20 73 -82 146 -152 178 -58 28 -151 32 -203 9z m175 -60 c45 -19 70 -40 94 -79 17 -28 17 -31 -2 -67 l-19 -38 -35 24 c-44 29 -113 45 -162 35 -41 -7 -98 -34 -108 -50 -11 -17 -24 -11 -39 17 -13 25 -12 32 5 65 19 38 66 80 109 97 38 15 116 13 157 -4z m101 -294 c-43 -82 -145 -126 -236 -102 -78 22 -151 110 -152 185 l0 30 33 -31 c51 -48 95 -66 162 -66 73 0 130 26 177 82 l33 40 3 -46 c2 -33 -3 -59 -20 -92z m-431 4 c7 -23 27 -57 43 -77 39 -47 140 -98 195 -98 111 0 213 65 256 164 l24 56 578 0 577 0 0 -305 0 -305 -950 0 -950 0 0 305 0 306 107 -3 106 -3 14 -40z"/>
<path d="M181 336 c-55 -31 -65 -93 -22 -137 31 -31 75 -38 112 -19 28 15 27 80 -1 80 -16 0 -20 -7 -20 -30 0 -25 -4 -30 -24 -30 -27 0 -42 14 -51 52 -10 39 26 72 71 65 24 -4 34 -2 34 8 0 26 -59 33 -99 11z"/>
<path d="M1041 332 c-10 -19 -61 -151 -61 -158 0 -2 9 -4 19 -4 11 0 23 9 26 20 9 28 61 28 70 0 4 -13 15 -20 31 -20 25 0 30 9 16 26 -5 5 -21 42 -36 82 -28 73 -47 88 -65 54z m29 -72 c0 -5 -4 -10 -10 -10 -5 0 -10 5 -10 10 0 6 5 10 10 10 6 0 10 -4 10 -10z"/>
<path d="M1204 340 c-29 -12 -64 -58 -64 -85 0 -13 13 -37 29 -54 22 -24 38 -31 66 -31 57 0 75 14 75 60 0 36 -3 40 -25 40 -22 0 -25 -4 -25 -35 0 -40 -15 -45 -48 -15 -45 42 -11 97 53 87 29 -5 35 -3 35 13 0 29 -49 39 -96 20z"/>
<path d="M1330 260 c0 -83 1 -90 20 -90 16 0 20 7 20 30 0 17 4 30 10 30 5 0 16 -13 25 -30 11 -21 23 -30 41 -30 27 0 27 2 -9 54 -18 26 -19 29 -4 38 24 13 21 54 -5 72 -12 9 -39 16 -60 16 l-38 0 0 -90z m75 30 c0 -8 -8 -16 -17 -18 -13 -2 -18 3 -18 18 0 15 5 20 18 18 9 -2 17 -10 17 -18z"/>
<path d="M1480 260 c0 -89 0 -90 25 -90 25 0 25 1 25 90 0 89 0 90 -25 90 -25 0 -25 -1 -25 -90z"/>
<path d="M1574 316 c-43 -43 -44 -77 -5 -117 43 -42 121 -38 121 7 0 9 -11 11 -35 7 -43 -7 -65 9 -65 47 0 38 22 54 65 47 29 -5 35 -3 35 13 0 43 -72 40 -116 -4z"/>
<path d="M1759 323 c-60 -153 -60 -153 -39 -153 10 0 24 9 30 20 6 12 21 20 35 20 14 0 29 -8 35 -20 10 -19 50 -29 50 -12 0 5 -15 44 -34 88 -38 86 -59 102 -77 57z m35 -58 c3 -9 0 -15 -9 -15 -9 0 -12 6 -9 15 4 8 7 15 9 15 2 0 5 -7 9 -15z"/>
<path d="M310 234 c0 -57 2 -64 20 -64 17 0 20 7 20 50 0 43 3 50 20 50 11 0 20 6 20 14 0 9 -13 13 -40 13 l-40 0 0 -63z"/>
<path d="M420 280 c-39 -39 -11 -110 43 -110 32 0 57 30 57 67 0 56 -60 83 -100 43z m62 -28 c3 -10 1 -28 -3 -40 -15 -40 -57 -2 -44 39 8 24 41 25 47 1z"/>
<path d="M540 252 c0 -61 19 -80 78 -80 l42 1 0 63 c0 57 -2 64 -20 64 -17 0 -20 -7 -20 -50 0 -43 -3 -50 -20 -50 -17 0 -20 7 -20 50 0 43 -3 50 -20 50 -17 0 -20 -7 -20 -48z"/>
<path d="M687 293 c-4 -3 -7 -46 -7 -95 0 -81 2 -88 20 -88 16 0 20 7 20 30 0 23 4 30 20 30 11 0 29 9 40 20 43 43 10 110 -53 110 -19 0 -37 -3 -40 -7z m68 -58 c0 -20 -6 -31 -17 -33 -15 -3 -18 4 -18 33 0 29 3 36 18 33 11 -2 17 -13 17 -33z"/>
<path d="M826 278 c-20 -29 -20 -58 0 -86 12 -18 24 -22 52 -20 26 2 38 8 40 20 3 15 -2 17 -26 12 -17 -4 -32 -1 -36 5 -5 7 6 11 33 11 34 0 41 3 41 20 0 28 -35 60 -64 60 -14 0 -32 -10 -40 -22z m64 -18 c0 -5 -9 -10 -20 -10 -11 0 -20 5 -20 10 0 6 9 10 20 10 11 0 20 -4 20 -10z"/>
</g>
</svg>
