<?xml version="1.0" standalone="no"?>
<!DOCTYPE svg PUBLIC "-//W3C//DTD SVG 20010904//EN"
 "http://www.w3.org/TR/2001/REC-SVG-20010904/DTD/svg10.dtd">
<svg version="1.0" xmlns="http://www.w3.org/2000/svg"
 width="200.000000pt" height="98.000000pt" viewBox="0 0 200.000000 98.000000"
 preserveAspectRatio="xMidYMid meet"> 
<g transform="translate(0.000000,98.000000) scale(0.050000,-0.050000)"
fill="#FFFFFF" stroke="none">
<path d="M856 1930 c-165 -54 -299 -222 -345 -435 l-12 -55 -250 0 -250 0 6
-715 5 -715 1995 -5 1995 -5 0 720 0 720 -1200 0 c-1148 0 -1200 2 -1200 36 0
322 -398 564 -744 454z m413 -158 c143 -84 179 -168 117 -273 l-33 -57 -57 48
c-145 122 -411 112 -543 -20 -67 -67 -117 45 -65 146 108 207 373 278 581 156z
m172 -476 c-103 -343 -601 -376 -752 -50 -79 169 -68 221 26 129 198 -193 529
-171 682 45 l53 75 7 -63 c3 -34 -4 -95 -16 -136z m-883 -86 c184 -444 869
-422 1005 33 l23 77 1157 0 1157 0 0 -605 0 -605 -1895 0 -1895 0 0 605 0 605
201 0 202 0 45 -110z"/>
<path d="M380 686 c-101 -37 -144 -161 -93 -261 42 -80 158 -113 261 -73 51
20 44 168 -8 168 -31 0 -40 -13 -40 -60 0 -94 -123 -71 -148 28 -25 101 58
170 159 132 40 -15 53 -13 63 12 21 56 -99 89 -194 54z"/>
<path d="M2024 534 c-76 -199 -75 -194 -22 -194 25 0 46 16 52 40 15 56 118
56 136 0 10 -31 112 -64 110 -35 -1 3 -32 82 -69 175 -95 233 -123 234 -207
14z"/>
<path d="M2349 633 c-154 -154 36 -377 232 -272 64 34 55 179 -11 179 -44 0
-50 -9 -50 -70 0 -81 -31 -90 -96 -29 -90 84 -22 194 107 173 65 -11 71 -8 65
32 -11 81 -161 73 -247 -13z"/>
<path d="M2660 520 c0 -167 3 -180 40 -180 31 0 40 13 40 60 0 33 9 60 19 60
11 0 34 -27 51 -60 22 -42 46 -60 81 -60 61 0 61 10 0 91 -43 56 -46 68 -20
89 82 69 -2 180 -135 180 l-76 0 0 -180z m150 60 c0 -16 -16 -32 -35 -36 -25
-5 -35 6 -35 36 0 30 10 41 35 36 19 -4 35 -20 35 -36z"/>
<path d="M2960 520 c0 -179 0 -180 50 -180 50 0 50 1 50 180 0 179 0 180 -50
180 -50 0 -50 -1 -50 -180z"/>
<path d="M3185 680 c-217 -90 -57 -412 163 -328 66 25 38 86 -35 75 -46 -8
-76 -1 -100 22 -77 77 -12 182 102 164 61 -10 67 -7 61 33 -7 50 -109 68 -191
34z"/>
<path d="M3522 655 c-10 -25 -41 -103 -70 -173 -63 -155 -62 -142 -4 -142 31
0 51 14 58 40 7 27 27 40 64 40 37 0 57 -13 64 -40 7 -26 27 -40 60 -40 56 0
57 -4 -24 205 -63 163 -114 201 -148 110z"/>
<path d="M1405 599 c-66 -26 -70 -379 -5 -379 31 0 40 13 40 60 0 47 9 60 40
60 22 0 58 18 80 40 102 102 -19 273 -155 219z m105 -129 c0 -41 -11 -62 -35
-66 -28 -6 -35 7 -35 66 0 59 7 72 35 66 24 -4 35 -25 35 -66z"/>
<path d="M620 467 c0 -114 4 -127 40 -127 34 0 40 13 40 90 0 79 7 94 50 110
78 30 59 57 -40 55 l-90 -1 0 -127z"/>
<path d="M833 563 c-44 -48 -42 -149 4 -190 96 -87 243 9 211 137 -22 90 -152
122 -215 53z m132 -58 c11 -52 -6 -105 -35 -105 -41 0 -74 55 -60 99 16 50 84
54 95 6z"/>
<path d="M1080 509 c0 -141 22 -167 140 -164 l100 2 0 126 c0 114 -4 127 -40
127 -35 0 -40 -13 -40 -100 0 -87 -5 -100 -40 -100 -35 0 -40 13 -40 100 0 87
-5 100 -40 100 -34 0 -40 -13 -40 -91z"/>
<path d="M1651 556 c-71 -102 -11 -222 106 -212 50 4 75 17 79 41 6 28 -4 32
-52 23 -34 -7 -65 -3 -73 10 -9 15 14 22 68 22 64 0 81 7 81 36 0 63 -58 124
-120 124 -37 0 -69 -16 -89 -44z"/>
</g>
</svg>
